<svg id="visual" viewBox="0 0 900 600" width="900" height="600" xmlns="http://www.w3.org/2000/svg" xmlns:xlink="http://www.w3.org/1999/xlink" version="1.1"><rect x="0" y="0" width="900" height="600" fill="#001220"></rect><defs><linearGradient id="grad1_0" x1="33.3%" y1="0%" x2="100%" y2="100%"><stop offset="20%" stop-color="#001220" stop-opacity="1"></stop><stop offset="80%" stop-color="#001220" stop-opacity="1"></stop></linearGradient></defs><defs><linearGradient id="grad2_0" x1="0%" y1="0%" x2="66.7%" y2="100%"><stop offset="20%" stop-color="#001220" stop-opacity="1"></stop><stop offset="80%" stop-color="#001220" stop-opacity="1"></stop></linearGradient></defs><g transform="translate(900, 0)"><path d="M0 216.3C-21.2 207.1 -42.4 197.8 -61.2 188.3C-80 178.8 -96.4 169.2 -116.4 160.2C-136.3 151.2 -159.8 142.9 -175 127.2C-190.2 111.4 -197.1 88.3 -202.6 65.8C-208.1 43.4 -212.2 21.7 -216.3 0L0 0Z" fill="#ffffff"></path></g><g transform="translate(0, 600)"><path d="M0 -216.3C21.9 -211.5 43.8 -206.8 64.6 -198.8C85.4 -190.8 105 -179.6 119.9 -165C134.8 -150.5 145 -132.5 160.2 -116.4C175.4 -100.2 195.6 -85.9 205.7 -66.9C215.9 -47.8 216.1 -23.9 216.3 0L0 0Z" fill="#ffffff"></path></g></svg>