<svg id="visual" viewBox="0 0 900 600" width="900" height="600" xmlns="http://www.w3.org/2000/svg" xmlns:xlink="http://www.w3.org/1999/xlink" version="1.1"><g><g transform="translate(193 317)"><path d="M0 -94.6L66.9 -66.9L94.6 0L66.9 66.9L0 94.6L-66.9 66.9L-94.6 0L-66.9 -66.9Z" fill="none" stroke="#ffffff" stroke-width="2"></path></g><g transform="translate(842 139)"><path d="M0 -77L54.4 -54.4L77 0L54.4 54.4L0 77L-54.4 54.4L-77 0L-54.4 -54.4Z" fill="none" stroke="#ffffff" stroke-width="2"></path></g><g transform="translate(861 465)"><path d="M0 -84L59.4 -59.4L84 0L59.4 59.4L0 84L-59.4 59.4L-84 0L-59.4 -59.4Z" fill="none" stroke="#ffffff" stroke-width="2"></path></g><g transform="translate(631 136)"><path d="M0 -81L57.3 -57.3L81 0L57.3 57.3L0 81L-57.3 57.3L-81 0L-57.3 -57.3Z" stroke="#ffffff" fill="none" stroke-width="2"></path></g><g transform="translate(637 333)"><path d="M0 -71L50.2 -50.2L71 0L50.2 50.2L0 71L-50.2 50.2L-71 0L-50.2 -50.2Z" stroke="#ffffff" fill="none" stroke-width="2"></path></g><g transform="translate(75 129)"><path d="M0 -71L50.2 -50.2L71 0L50.2 50.2L0 71L-50.2 50.2L-71 0L-50.2 -50.2Z" stroke="#ffffff" fill="none" stroke-width="2"></path></g><g transform="translate(93 524)"><path d="M0 -93L65.8 -65.8L93 0L65.8 65.8L0 93L-65.8 65.8L-93 0L-65.8 -65.8Z" stroke="#ffffff" fill="none" stroke-width="2"></path></g><g transform="translate(321 92)"><path d="M0 -79L55.9 -55.9L79 0L55.9 55.9L0 79L-55.9 55.9L-79 0L-55.9 -55.9Z" stroke="#ffffff" fill="none" stroke-width="2"></path></g><g transform="translate(469 576)"><path d="M0 -72L50.9 -50.9L72 0L50.9 50.9L0 72L-50.9 50.9L-72 0L-50.9 -50.9Z" stroke="#ffffff" fill="none" stroke-width="2"></path></g><g transform="translate(451 294)"><path d="M0 -89L62.9 -62.9L89 0L62.9 62.9L0 89L-62.9 62.9L-89 0L-62.9 -62.9Z" stroke="#ffffff" fill="none" stroke-width="2"></path></g></g></svg>