<svg id="visual" viewBox="0 0 900 600" width="900" height="600" xmlns="http://www.w3.org/2000/svg" xmlns:xlink="http://www.w3.org/1999/xlink" version="1.1"><rect x="0" y="0" width="900" height="600" fill="#002233"></rect><path d="M0 444L21.5 438.3C43 432.7 86 421.3 128.8 426.2C171.7 431 214.3 452 257.2 446.5C300 441 343 409 385.8 417.2C428.7 425.3 471.3 473.7 514.2 494.2C557 514.7 600 507.3 642.8 485C685.7 462.7 728.3 425.3 771.2 406.7C814 388 857 388 878.5 388L900 388L900 601L878.5 601C857 601 814 601 771.2 601C728.3 601 685.7 601 642.8 601C600 601 557 601 514.2 601C471.3 601 428.7 601 385.8 601C343 601 300 601 257.2 601C214.3 601 171.7 601 128.8 601C86 601 43 601 21.5 601L0 601Z" fill="#0066FF" stroke-linecap="round" stroke-linejoin="miter"></path></svg>