<svg id="visual" viewBox="0 0 900 600" width="900" height="600" xmlns="http://www.w3.org/2000/svg" xmlns:xlink="http://www.w3.org/1999/xlink" version="1.1"><g stroke-width="1" stroke-linejoin="bevel"><path d="M421 307L416 378L486 303Z" fill="#246688" stroke="#246688"></path><path d="M416 378L489 436L486 303Z" fill="#15384f" stroke="#15384f"></path><path d="M421 307L322 364L416 378Z" fill="#246688" stroke="#246688"></path><path d="M416 378L397 529L489 436Z" fill="#297ea6" stroke="#297ea6"></path><path d="M489 436L570 432L486 303Z" fill="#0c2435" stroke="#0c2435"></path><path d="M486 303L372 216L421 307Z" fill="#0c2435" stroke="#0c2435"></path><path d="M421 307L308 261L322 364Z" fill="#00101c" stroke="#00101c"></path><path d="M372 216L308 261L421 307Z" fill="#081a28" stroke="#081a28"></path><path d="M570 432L627 326L486 303Z" fill="#246688" stroke="#246688"></path><path d="M486 303L539 194L372 216Z" fill="#00101c" stroke="#00101c"></path><path d="M627 326L539 194L486 303Z" fill="#15384f" stroke="#15384f"></path><path d="M179 394L329 469L322 364Z" fill="#081a28" stroke="#081a28"></path><path d="M322 364L329 469L416 378Z" fill="#297ea6" stroke="#297ea6"></path><path d="M489 436L527 515L570 432Z" fill="#0c2435" stroke="#0c2435"></path><path d="M397 529L527 515L489 436Z" fill="#19435d" stroke="#19435d"></path><path d="M570 432L715 427L627 326Z" fill="#00101c" stroke="#00101c"></path><path d="M329 469L397 529L416 378Z" fill="#19435d" stroke="#19435d"></path><path d="M372 216L285 233L308 261Z" fill="#112e42" stroke="#112e42"></path><path d="M163 278L179 394L322 364Z" fill="#297ea6" stroke="#297ea6"></path><path d="M527 515L616 476L570 432Z" fill="#112e42" stroke="#112e42"></path><path d="M588 71L508 107L539 194Z" fill="#081a28" stroke="#081a28"></path><path d="M539 194L508 107L372 216Z" fill="#277297" stroke="#277297"></path><path d="M372 216L279 138L285 233Z" fill="#1d4e6b" stroke="#1d4e6b"></path><path d="M397 529L425 600L527 515Z" fill="#277297" stroke="#277297"></path><path d="M527 515L563 600L616 476Z" fill="#277297" stroke="#277297"></path><path d="M262 600L425 600L397 529Z" fill="#15384f" stroke="#15384f"></path><path d="M627 326L637 161L539 194Z" fill="#00101c" stroke="#00101c"></path><path d="M425 600L527 600L527 515Z" fill="#19435d" stroke="#19435d"></path><path d="M715 427L718 286L627 326Z" fill="#277297" stroke="#277297"></path><path d="M627 326L718 286L637 161Z" fill="#205a7a" stroke="#205a7a"></path><path d="M687 538L715 427L616 476Z" fill="#00101c" stroke="#00101c"></path><path d="M616 476L715 427L570 432Z" fill="#205a7a" stroke="#205a7a"></path><path d="M439 61L279 138L372 216Z" fill="#297ea6" stroke="#297ea6"></path><path d="M527 600L563 600L527 515Z" fill="#297ea6" stroke="#297ea6"></path><path d="M163 278L308 261L285 233Z" fill="#246688" stroke="#246688"></path><path d="M163 278L322 364L308 261Z" fill="#277297" stroke="#277297"></path><path d="M329 469L262 600L397 529Z" fill="#297ea6" stroke="#297ea6"></path><path d="M432 0L439 61L523 0Z" fill="#19435d" stroke="#19435d"></path><path d="M508 107L439 61L372 216Z" fill="#277297" stroke="#277297"></path><path d="M176 222L163 278L285 233Z" fill="#00101c" stroke="#00101c"></path><path d="M660 600L687 538L616 476Z" fill="#205a7a" stroke="#205a7a"></path><path d="M637 161L588 71L539 194Z" fill="#19435d" stroke="#19435d"></path><path d="M703 69L588 71L637 161Z" fill="#246688" stroke="#246688"></path><path d="M279 138L176 222L285 233Z" fill="#00101c" stroke="#00101c"></path><path d="M819 239L737 223L718 286Z" fill="#0c2435" stroke="#0c2435"></path><path d="M718 286L737 223L637 161Z" fill="#246688" stroke="#246688"></path><path d="M179 394L198 518L329 469Z" fill="#0c2435" stroke="#0c2435"></path><path d="M760 500L771 367L715 427Z" fill="#277297" stroke="#277297"></path><path d="M715 427L771 367L718 286Z" fill="#205a7a" stroke="#205a7a"></path><path d="M198 518L262 600L329 469Z" fill="#277297" stroke="#277297"></path><path d="M563 600L660 600L616 476Z" fill="#277297" stroke="#277297"></path><path d="M687 538L760 500L715 427Z" fill="#1d4e6b" stroke="#1d4e6b"></path><path d="M760 600L760 500L687 538Z" fill="#246688" stroke="#246688"></path><path d="M523 0L439 61L508 107Z" fill="#0c2435" stroke="#0c2435"></path><path d="M439 61L313 0L279 138Z" fill="#15384f" stroke="#15384f"></path><path d="M139 139L129 226L176 222Z" fill="#1d4e6b" stroke="#1d4e6b"></path><path d="M173 125L176 222L279 138Z" fill="#112e42" stroke="#112e42"></path><path d="M176 222L129 226L163 278Z" fill="#19435d" stroke="#19435d"></path><path d="M163 278L79 361L179 394Z" fill="#081a28" stroke="#081a28"></path><path d="M120 600L179 600L198 518Z" fill="#277297" stroke="#277297"></path><path d="M588 71L523 0L508 107Z" fill="#246688" stroke="#246688"></path><path d="M575 0L523 0L588 71Z" fill="#15384f" stroke="#15384f"></path><path d="M188 0L173 125L279 138Z" fill="#205a7a" stroke="#205a7a"></path><path d="M900 318L818 305L900 376Z" fill="#081a28" stroke="#081a28"></path><path d="M771 367L818 305L718 286Z" fill="#246688" stroke="#246688"></path><path d="M703 69L575 0L588 71Z" fill="#297ea6" stroke="#297ea6"></path><path d="M703 69L637 161L737 223Z" fill="#205a7a" stroke="#205a7a"></path><path d="M822 126L703 69L737 223Z" fill="#19435d" stroke="#19435d"></path><path d="M432 0L313 0L439 61Z" fill="#00101c" stroke="#00101c"></path><path d="M198 518L179 600L262 600Z" fill="#205a7a" stroke="#205a7a"></path><path d="M66 501L198 518L179 394Z" fill="#15384f" stroke="#15384f"></path><path d="M83 261L79 361L163 278Z" fill="#205a7a" stroke="#205a7a"></path><path d="M173 125L139 139L176 222Z" fill="#205a7a" stroke="#205a7a"></path><path d="M129 226L83 261L163 278Z" fill="#00101c" stroke="#00101c"></path><path d="M65 0L139 139L173 125Z" fill="#00101c" stroke="#00101c"></path><path d="M818 305L819 239L718 286Z" fill="#246688" stroke="#246688"></path><path d="M0 172L83 261L129 226Z" fill="#1d4e6b" stroke="#1d4e6b"></path><path d="M660 600L760 600L687 538Z" fill="#1d4e6b" stroke="#1d4e6b"></path><path d="M900 376L818 305L771 367Z" fill="#297ea6" stroke="#297ea6"></path><path d="M0 379L66 501L79 361Z" fill="#246688" stroke="#246688"></path><path d="M79 361L66 501L179 394Z" fill="#112e42" stroke="#112e42"></path><path d="M66 501L120 600L198 518Z" fill="#19435d" stroke="#19435d"></path><path d="M900 218L822 126L819 239Z" fill="#246688" stroke="#246688"></path><path d="M819 239L822 126L737 223Z" fill="#00101c" stroke="#00101c"></path><path d="M703 69L724 0L575 0Z" fill="#19435d" stroke="#19435d"></path><path d="M313 0L188 0L279 138Z" fill="#00101c" stroke="#00101c"></path><path d="M0 283L79 361L83 261Z" fill="#0c2435" stroke="#0c2435"></path><path d="M803 0L724 0L703 69Z" fill="#297ea6" stroke="#297ea6"></path><path d="M900 376L771 367L760 500Z" fill="#19435d" stroke="#19435d"></path><path d="M818 305L900 318L819 239Z" fill="#00101c" stroke="#00101c"></path><path d="M900 535L900 376L760 500Z" fill="#19435d" stroke="#19435d"></path><path d="M0 283L0 379L79 361Z" fill="#246688" stroke="#246688"></path><path d="M0 283L83 261L0 172Z" fill="#205a7a" stroke="#205a7a"></path><path d="M0 172L129 226L139 139Z" fill="#0c2435" stroke="#0c2435"></path><path d="M900 318L900 218L819 239Z" fill="#297ea6" stroke="#297ea6"></path><path d="M822 126L803 0L703 69Z" fill="#1d4e6b" stroke="#1d4e6b"></path><path d="M0 379L0 498L66 501Z" fill="#0c2435" stroke="#0c2435"></path><path d="M66 501L0 600L120 600Z" fill="#1d4e6b" stroke="#1d4e6b"></path><path d="M760 600L900 535L760 500Z" fill="#00101c" stroke="#00101c"></path><path d="M0 79L0 172L139 139Z" fill="#0c2435" stroke="#0c2435"></path><path d="M900 76L803 0L822 126Z" fill="#0c2435" stroke="#0c2435"></path><path d="M760 600L900 600L900 535Z" fill="#00101c" stroke="#00101c"></path><path d="M900 218L900 76L822 126Z" fill="#277297" stroke="#277297"></path><path d="M188 0L65 0L173 125Z" fill="#112e42" stroke="#112e42"></path><path d="M0 498L0 600L66 501Z" fill="#00101c" stroke="#00101c"></path><path d="M65 0L0 79L139 139Z" fill="#112e42" stroke="#112e42"></path><path d="M900 76L900 0L803 0Z" fill="#1d4e6b" stroke="#1d4e6b"></path><path d="M65 0L0 0L0 79Z" fill="#112e42" stroke="#112e42"></path></g></svg>