<svg id="visual" viewBox="0 0 960 540" width="960" height="540" xmlns="http://www.w3.org/2000/svg" xmlns:xlink="http://www.w3.org/1999/xlink" version="1.1"><rect x="0" y="0" width="960" height="540" fill="#16232b"></rect><path d="M0 406L40 396.7C80 387.3 160 368.7 240 363.2C320 357.7 400 365.3 480 376.3C560 387.3 640 401.7 720 396.5C800 391.3 880 366.7 920 354.3L960 342L960 541L920 541C880 541 800 541 720 541C640 541 560 541 480 541C400 541 320 541 240 541C160 541 80 541 40 541L0 541Z" fill="#ecf0f1" stroke-linecap="round" stroke-linejoin="miter"></path></svg>